<?xml version="1.0" standalone="no"?><!DOCTYPE svg PUBLIC "-//W3C//DTD SVG 1.1//EN" "http://www.w3.org/Graphics/SVG/1.1/DTD/svg11.dtd"><svg t="1780628167481" class="icon" viewBox="0 0 1024 1024" version="1.1" xmlns="http://www.w3.org/2000/svg" p-id="7644" xmlns:xlink="http://www.w3.org/1999/xlink" width="200" height="200"><path d="M682.666667 1023.544889a341.333333 341.333333 0 1 1 341.333333-341.333333 341.333333 341.333333 0 0 1-341.333333 341.333333z m-40.220445-129.080889a55.637333 55.637333 0 0 0 29.639111 15.530667h21.162667a55.352889 55.352889 0 0 0 29.639111-15.530667 53.191111 53.191111 0 0 0 17.066667-39.822222 56.888889 56.888889 0 0 0-113.777778 0 53.873778 53.873778 0 0 0 16.270222 39.822222z m81.294222-396.003556A54.727111 54.727111 0 0 0 682.666667 481.735111a54.158222 54.158222 0 0 0-41.016889 17.066667A57.799111 57.799111 0 0 0 625.777778 540.444444c0 14.392889 24.120889 120.206222 30.606222 197.176889h53.532444C717.425778 660.423111 739.555556 554.666667 739.555556 540.444444a58.026667 58.026667 0 0 0-15.815112-42.040888zM682.666667 256.910222a423.025778 423.025778 0 0 0-316.359111 143.189334C134.257778 388.664889 0 325.176889 0 247.751111V154.794667C0 70.030222 160.540444 0 441.571556 0s473.088 69.575111 473.088 154.794667v92.956444a79.985778 79.985778 0 0 1-34.133334 59.904A420.977778 420.977778 0 0 0 682.666667 256.910222z m-366.023111 211.626667a421.489778 421.489778 0 0 0-59.619556 213.162667C93.240889 657.066667 0 603.022222 0 540.899556V412.728889a64.568889 64.568889 0 0 1 22.755556-47.502222c52.224 49.493333 144.896 88.405333 293.888 103.310222zM273.066667 792.689778a424.106667 424.106667 0 0 0 156.103111 230.286222C158.492444 1017.685333 0 951.011556 0 870.4v-128.056889a65.422222 65.422222 0 0 1 23.779556-47.502222 439.296 439.296 0 0 0 249.287111 97.848889z" fill="#F23D3D" p-id="7645"></path></svg>