<?xml version="1.0" standalone="no"?><!DOCTYPE svg PUBLIC "-//W3C//DTD SVG 1.1//EN" "http://www.w3.org/Graphics/SVG/1.1/DTD/svg11.dtd"><svg t="1780628038929" class="icon" viewBox="0 0 1024 1024" version="1.1" xmlns="http://www.w3.org/2000/svg" p-id="6026" xmlns:xlink="http://www.w3.org/1999/xlink" width="200" height="200"><path d="M513.536 73.142857L950.857143 365.714286h-48.761905v536.380952a48.761905 48.761905 0 0 1-48.761905 48.761905H170.666667a48.761905 48.761905 0 0 1-48.761905-48.761905V365.714286H73.142857L513.536 73.142857zM512 316.952381c-134.656 0-243.809524 109.153524-243.809524 243.809524s109.153524 243.809524 243.809524 243.809524a242.785524 242.785524 0 0 0 152.917333-53.881905l35.352381 35.352381a26.185143 26.185143 0 1 0 37.034667-37.010286l-35.401143-35.352381A242.785524 242.785524 0 0 0 755.809524 560.761905c0-134.656-109.153524-243.809524-243.809524-243.809524z m0 48.761905a195.047619 195.047619 0 1 1 0 390.095238 195.047619 195.047619 0 0 1 0-390.095238z m-74.605714 73.752381a24.380952 24.380952 0 1 0-34.499048 34.474666l62.415238 62.415238L414.47619 536.380952a24.380952 24.380952 0 0 0 0 48.761905h73.142858v24.380953h-73.142858a24.380952 24.380952 0 0 0 0 48.761904h73.142858v24.380953a24.380952 24.380952 0 0 0 48.761904 0v-24.380953h73.142858a24.380952 24.380952 0 0 0 0-48.761904h-73.142858v-24.380953h73.142858a24.380952 24.380952 0 0 0 0-48.761905h-50.858667l62.415238-62.415238a24.380952 24.380952 0 1 0-34.450286-34.499047l-74.654476 74.605714z" fill="#4BB4FF" p-id="6027"></path></svg>