<?xml version="1.0" standalone="no"?><!DOCTYPE svg PUBLIC "-//W3C//DTD SVG 1.1//EN" "http://www.w3.org/Graphics/SVG/1.1/DTD/svg11.dtd"><svg t="1780628102458" class="icon" viewBox="0 0 1024 1024" version="1.1" xmlns="http://www.w3.org/2000/svg" p-id="6595" xmlns:xlink="http://www.w3.org/1999/xlink" width="200" height="200"><path d="M533.027164 620.843277a39.658807 39.658807 0 0 0-39.46691-39.530876H420.895084a39.275012 39.275012 0 0 0-27.953062 11.577813 39.786739 39.786739 0 0 0-11.577813 27.953063v72.665169a39.211047 39.211047 0 0 0 11.577813 27.953063 39.786739 39.786739 0 0 0 27.953062 11.577813h72.66517a39.722773 39.722773 0 0 0 27.889097-11.577813 39.147081 39.147081 0 0 0 11.577813-27.953063z m-42.665201 3.134325v66.332554H424.029409V624.105534zM493.560254 781.333515H420.895084a39.275012 39.275012 0 0 0-28.017028 11.577813 39.978636 39.978636 0 0 0-11.513847 27.953063v72.665169a39.530876 39.530876 0 0 0 11.577813 27.889097 39.019149 39.019149 0 0 0 27.953062 11.577813h72.66517a39.402944 39.402944 0 0 0 39.46691-39.46691v-72.665169a39.019149 39.019149 0 0 0-11.577813-27.953063 39.722773 39.722773 0 0 0-27.889097-11.577813z m-3.198291 42.665201v66.396519H424.029409v-66.396519zM351.36424 421.141992a39.530876 39.530876 0 0 0-39.46691-39.530875H239.168194a39.402944 39.402944 0 0 0-39.466909 39.530875v72.66517a39.530876 39.530876 0 0 0 39.466909 39.530875h72.729136a38.955183 38.955183 0 0 0 27.889097-11.577813 39.914671 39.914671 0 0 0 11.577813-27.953062z m-42.665201 3.198291v66.332554H242.366485V424.340283zM533.027164 421.141992a39.147081 39.147081 0 0 0-11.577813-27.953062 39.722773 39.722773 0 0 0-27.889097-11.577813H420.895084a39.275012 39.275012 0 0 0-28.017028 11.577813 40.106568 40.106568 0 0 0-11.513847 27.953062v72.66517a39.786739 39.786739 0 0 0 11.577813 27.953062 39.019149 39.019149 0 0 0 27.953062 11.577813h72.66517a39.530876 39.530876 0 0 0 39.46691-39.530875z m-42.665201 3.198291v66.332554H424.029409V424.340283zM311.89733 781.333515H239.168194a39.402944 39.402944 0 0 0-39.466909 39.530876v72.665169a39.530876 39.530876 0 0 0 39.466909 39.46691h72.729136a38.955183 38.955183 0 0 0 27.889097-11.577813 39.722773 39.722773 0 0 0 11.577813-27.889097v-72.665169a39.530876 39.530876 0 0 0-39.46691-39.530876z m-3.198291 42.665201v66.396519H242.366485v-66.396519zM351.36424 620.843277a39.722773 39.722773 0 0 0-11.577813-27.889097 39.019149 39.019149 0 0 0-27.889097-11.641779H239.168194a39.530876 39.530876 0 0 0-39.466909 39.530876v72.665169a39.211047 39.211047 0 0 0 11.577813 27.953063 39.722773 39.722773 0 0 0 27.889096 11.577813h72.729136a39.530876 39.530876 0 0 0 39.46691-39.530876z m-42.665201 3.134325v66.332554H242.366485V624.105534z" fill="#0090FF" p-id="6596"></path><path d="M519.850205 963.060405h-351.812V315.918221L511.726546 66.003769l342.217128 248.635136v207.121319a30.639627 30.639627 0 0 0 60.831493-0.383795V359.031183l60.639596 44.264346A30.447729 30.447729 0 0 0 1023.453092 374.127116a30.959456 30.959456 0 0 0-12.217471-20.277165L532.707335 5.747968a41.130021 41.130021 0 0 0-41.066056 0L12.793164 353.338225a30.383764 30.383764 0 0 0 5.565026 52.451971 29.872037 29.872037 0 0 0 30.1279-2.430701l60.255801-43.304859v633.261601a30.191866 30.191866 0 0 0 29.616174 30.511695h381.620072a30.383764 30.383764 0 0 0 0-60.767527z" fill="#0090FF" p-id="6597"></path><path d="M958.719684 646.429604A221.1938 221.1938 0 1 0 1023.453092 802.634132a219.978449 219.978449 0 0 0-64.733408-156.204528z m-30.191866 282.664951a178.528599 178.528599 0 1 1 38.69932-194.584019 178.144804 178.144804 0 0 1-38.69932 194.392122z" fill="#FF0000" p-id="6598"></path><path d="M802.259293 654.169468a39.402944 39.402944 0 0 0-39.46691 39.722773l15.351796 167.526478a21.300617 21.300617 0 0 0 20.852857 17.14284h6.972274a21.492515 21.492515 0 0 0 21.364583-17.462669l14.328344-167.398546a39.530876 39.530876 0 0 0-39.402944-39.530876zM802.323259 908.689459a20.852857 20.852857 0 0 0-15.031968 6.396582 21.428549 21.428549 0 0 0 6.908309 34.861371 22.004241 22.004241 0 0 0 8.25159 1.599145 21.364583 21.364583 0 0 0 0-42.729166z" fill="#FF0000" p-id="6599"></path></svg>